<?xml version="1.0" encoding="UTF-8"?>
<svg width="55px" height="37px" viewBox="0 0 55 37" version="1.1" xmlns="http://www.w3.org/2000/svg" xmlns:xlink="http://www.w3.org/1999/xlink">
    <title>icloud</title>
    <g id="Home" stroke="none" stroke-width="1" fill="none" fill-rule="evenodd">
        <g id="KYNP_Index-Copy" transform="translate(-654.000000, -1963.000000)" fill="#FFFFFF" fill-rule="nonzero">
            <g id="icloud" transform="translate(654.000000, 1963.086760)">
                <path d="M45.86958,14.07816 C45.55674,6.26256 39.10086,0 31.2102,0 C25.8597,0 21.00582,2.88126 18.42552,7.46514 C17.2692,6.80616 15.95556,6.45426 14.59998,6.45426 C10.60992,6.45426 7.3152,9.48906 6.90336,13.37166 C2.73834,15.2064 0,19.35054 0,23.95854 C0,26.99028 1.1646,29.8557 3.27924,32.02686 C5.38938,34.19334 8.21466,35.43408 11.2338,35.5203 C11.29842,35.52228 17.03952,35.52318 28.29762,35.52318 C42.8211,35.52318 44.14734,35.52138 44.28918,35.52048 L44.28918,35.52066 L44.30898,35.5203 C44.31564,35.52012 44.3223,35.52012 44.32896,35.51976 C47.14002,35.42706 49.76802,34.26264 51.72858,32.24124 C53.69418,30.21462 54.7767,27.54324 54.7767,24.71922 C54.7767,19.4292 50.95656,14.98014 45.86958,14.07816 Z M44.26128,32.82102 C44.25714,32.82102 44.253,32.82102 44.24886,32.82102 C44.02332,32.82228 37.47528,32.82318 28.29744,32.82318 C20.30706,32.82318 11.7054,32.82246 11.29716,32.82102 C6.47532,32.67522 2.7,28.78524 2.7,23.95854 C2.7,20.18628 5.09364,16.81974 8.65638,15.58098 C9.20592,15.39 9.57114,14.86854 9.56286,14.28678 C9.5625,14.25996 9.5616,14.23332 9.5607,14.20668 L9.56016,14.19372 C9.56016,11.41488 11.82114,9.1539 14.60016,9.1539 C15.86916,9.1539 17.082,9.62802 18.01512,10.48878 C18.3384,10.78686 18.7866,10.90926 19.21608,10.81584 C19.64574,10.72278 20.00322,10.42632 20.17422,10.02132 C22.05126,5.57352 26.38314,2.69964 31.2102,2.69964 C37.81116,2.69964 43.18146,8.07012 43.18146,14.67144 C43.18146,14.82786 43.17714,14.99634 43.16742,15.21792 C43.1352,15.95574 43.70166,16.5825 44.43912,16.62462 C48.72204,16.86942 52.07688,20.42496 52.07688,24.71904 C52.07688,29.11032 48.64536,32.66478 44.26128,32.82102 Z" id="Shape"></path>
            </g>
        </g>
    </g>
</svg>