<?xml version="1.0" encoding="UTF-8"?>
<svg width="47px" height="47px" viewBox="0 0 47 47" version="1.1" xmlns="http://www.w3.org/2000/svg" xmlns:xlink="http://www.w3.org/1999/xlink">
    <title>forest</title>
    <g id="Home" stroke="none" stroke-width="1" fill="none" fill-rule="evenodd">
        <g id="KYNP_Index-Copy" transform="translate(-1056.000000, -1954.000000)" fill="#FFFFFF" fill-rule="nonzero">
            <g id="forest" transform="translate(1056.000000, 1954.000000)">
                <path d="M7.92,37.44 C9.01521,37.44 10.08171,37.20204 11.07,36.74466 L11.07,44.28 L3.87,44.28 C3.37302,44.28 2.97,44.68293 2.97,45.18 C2.97,45.67707 3.37302,46.08 3.87,46.08 L42.21,46.08 C42.70698,46.08 43.11,45.67707 43.11,45.18 C43.11,44.68293 42.70698,44.28 42.21,44.28 L35.01,44.28 L35.01,36.74466 C35.99829,37.20204 37.06479,37.44 38.16,37.44 C42.45309,37.44 46.08,33.93675 46.08,29.79 C46.08,26.48277 43.67727,23.45265 40.3839,22.46958 C40.1931,20.38851 38.96847,18.52839 37.15281,17.52345 C37.52235,16.52886 37.71,15.48207 37.71,14.4 C37.71,13.65768 37.61901,12.92004 37.43955,12.20733 C37.31805,11.72529 36.82872,11.43288 36.34704,11.55429 C35.86509,11.67561 35.57268,12.16476 35.694,12.6468 C35.83728,13.21596 35.91,13.80573 35.91,14.4 C35.91,15.26229 35.76141,16.09587 35.46882,16.8876 C35.02458,16.78977 34.57017,16.74 34.11,16.74 C30.82824,16.74 28.12455,19.26198 27.83556,22.46976 C26.28801,22.93182 24.93729,23.84604 23.94,25.02855 L23.94,17.66826 L29.097,15.21252 C29.54574,14.99877 29.73636,14.46174 29.52261,14.013 C29.30886,13.56417 28.77165,13.37364 28.32309,13.58739 L23.94,15.67458 L23.94,9 C23.94,8.50293 23.53698,8.1 23.04,8.1 C22.54302,8.1 22.14,8.50293 22.14,9 L22.14,12.97458 L17.757,10.88739 C17.30808,10.67382 16.77114,10.86417 16.55748,11.313 C16.34373,11.76174 16.53426,12.29886 16.98309,12.51252 L22.14009,14.96826 L22.14009,25.02855 C21.1428,23.84604 19.79208,22.93182 18.24453,22.46976 C17.95545,19.26198 15.25176,16.74 11.97,16.74 C11.50992,16.74 11.05542,16.78977 10.61118,16.8876 C10.31859,16.09596 10.17,15.26229 10.17,14.4 C10.17,10.83582 12.73941,7.85565 16.27947,7.31385 C16.65837,7.25589 16.95897,6.96429 17.02845,6.58728 C17.523,3.90285 20.1636,1.8 23.04,1.8 C25.9164,1.8 28.557,3.90285 29.05155,6.58728 C29.12103,6.9642 29.42163,7.25589 29.80053,7.31385 C30.16872,7.37019 30.53502,7.45569 30.88962,7.56783 C31.36356,7.71795 31.86927,7.45533 32.0193,6.98139 C32.16924,6.50754 31.90671,6.00174 31.43277,5.8518 C31.1859,5.77368 30.93453,5.70591 30.68064,5.64912 C29.77443,2.38851 26.59941,0 23.04,0 C19.48059,0 16.30557,2.3886 15.39936,5.64912 C11.3292,6.56199 8.37,10.16118 8.37,14.4 C8.37,15.48207 8.55765,16.52886 8.9271,17.52336 C7.11162,18.5283 5.88681,20.38842 5.6961,22.46958 C2.40273,23.45265 0,26.48277 0,29.79 C0,33.93675 3.62691,37.44 7.92,37.44 L7.92,37.44 Z M12.87,36.74466 C13.85829,37.20204 14.92479,37.44 16.02,37.44 C18.45423,37.44 20.67381,36.31347 22.14,34.58223 L22.14,44.28 L12.87,44.28 L12.87,36.74466 Z M23.94,44.28 L23.94,34.58223 C25.40619,36.31347 27.62577,37.44 30.06,37.44 C31.15521,37.44 32.22171,37.20204 33.21,36.74466 L33.21,44.28 L23.94,44.28 Z M28.9008,24.05736 C29.33622,23.96988 29.68929,23.56686 29.61018,22.99977 C29.63196,20.53692 31.6422,18.54 34.11,18.54 C36.59571,18.54 38.58786,20.55339 38.60982,22.99977 C38.53134,23.56263 38.87937,23.96907 39.3192,24.05736 C42.14736,24.62544 44.28,27.09 44.28,29.79 C44.28,32.96106 41.47731,35.64 38.16,35.64 C37.04382,35.64 35.96346,35.31303 35.01,34.69176 L35.01,31.6962 L39.91248,29.24496 C40.35708,29.02266 40.53726,28.48203 40.31505,28.03743 C40.09266,27.59283 39.55176,27.41256 39.10761,27.63495 L35.01,29.6838 C35.01,28.92591 35.01,24.19452 35.01,23.04 C35.01,22.54293 34.60698,22.14 34.11,22.14 C33.61302,22.14 33.21,22.54293 33.21,23.04 L33.21,26.26713 L32.04639,25.10352 C31.69485,24.75216 31.12515,24.75216 30.77352,25.10352 C30.42207,25.45497 30.42207,26.02485 30.77352,26.37639 L33.21,28.81287 L33.21,34.69176 C32.25654,35.31303 31.17618,35.64 30.06,35.64 C26.74269,35.64 23.94,32.96106 23.94,29.79 C23.94,27.09 26.07264,24.62544 28.9008,24.05736 L28.9008,24.05736 Z M6.7608,24.05736 C7.19577,23.96997 7.54938,23.56776 7.47018,22.99977 C7.49214,20.5533 9.48222,18.54 11.97,18.54 C14.4378,18.54 16.44804,20.53692 16.46982,22.99977 C16.39116,23.56344 16.74045,23.96925 17.1792,24.05736 C20.00736,24.62544 22.14,27.09 22.14,29.79 C22.14,32.96106 19.33731,35.64 16.02,35.64 C14.90382,35.64 13.82346,35.31303 12.87,34.69176 L12.87,34.21287 L15.30639,31.77648 C15.65784,31.42503 15.65784,30.85515 15.30639,30.50361 C14.95485,30.15225 14.38515,30.15225 14.03352,30.50361 L12.87,31.66713 L12.87,25.74 C12.87,25.24293 12.46698,24.84 11.97,24.84 C11.47302,24.84 11.07,25.24293 11.07,25.74 L11.07,29.6838 L6.97248,27.63504 C6.52788,27.41274 5.98734,27.59292 5.76504,28.03752 C5.54274,28.48212 5.72292,29.02275 6.16761,29.24505 L11.07,31.6962 L11.07,34.69167 C10.11654,35.31303 9.03618,35.64 7.92,35.64 C4.60269,35.64 1.8,32.96106 1.8,29.79 C1.8,27.09 3.93264,24.62544 6.7608,24.05736 Z" id="Shape"></path>
                <circle id="Oval" cx="34.56" cy="8.91" r="1"></circle>
            </g>
        </g>
    </g>
</svg>