<?xml version="1.0" encoding="UTF-8"?>
<svg width="51px" height="29px" viewBox="0 0 51 29" version="1.1" xmlns="http://www.w3.org/2000/svg" xmlns:xlink="http://www.w3.org/1999/xlink">
    <title>terrain copy 3</title>
    <g id="Home" stroke="none" stroke-width="1" fill="none" fill-rule="evenodd">
        <g id="KYNP_Index-Copy" transform="translate(-254.000000, -1969.000000)" fill="#FFFFFF" fill-rule="nonzero">
            <g id="terrain-copy-3" transform="translate(254.000000, 1969.000000)">
                <path d="M50.257247,26.530321 L30.9347438,0.767052 C30.6429552,0.37806912 30.185401,0.149292 29.6992238,0.149292 C29.2130467,0.149292 28.7552866,0.37806912 28.4637038,0.767052 L20.4525922,11.4487402 L17.2717459,7.20761184 C16.9801632,6.81862896 16.522403,6.58985184 16.0362259,6.58985184 C15.5500488,6.58985184 15.0924946,6.81862896 14.8007059,7.20761184 L0.30888,26.530321 C-0.04200768,26.9981712 -0.09842976,27.6245798 0.16308864,28.1478226 C0.42460704,28.6708594 0.95938128,29.001361 1.5444,29.001361 L49.021727,29.001361 C49.6067458,29.001361 50.14152,28.6708594 50.4030384,28.1478226 C50.6647627,27.6243739 50.6083406,26.9981712 50.257247,26.530321 Z M4.6332,25.912561 L16.0362259,10.7082518 L19.2168662,14.9493802 C19.508449,15.338363 19.9662091,15.5671402 20.4523862,15.5671402 C20.9385634,15.5671402 21.3961176,15.338363 21.6879062,14.9493802 L29.6990179,4.267692 L45.932927,25.912561 L4.6332,25.912561 Z" id="Shape"></path>
            </g>
        </g>
    </g>
</svg>